<?xml version="1.0" encoding="UTF-8"?>
<svg version="1.1" xmlns="http://www.w3.org/2000/svg" width="508" height="514">
<path d="M0 0 C167.64 0 335.28 0 508 0 C508 169.62 508 339.24 508 514 C340.36 514 172.72 514 0 514 C0 344.38 0 174.76 0 0 Z " fill="#FEFEFE" transform="translate(0,0)"/>
<path d="M0 0 C7.72122815 3.92924722 11.7964289 11.56973136 14.6953125 19.33203125 C15.06914062 20.33234375 15.44296875 21.33265625 15.828125 22.36328125 C17.67231578 27.57344261 18.92671674 31.75353608 18.6953125 37.33203125 C20.29994699 37.02194241 21.90400481 36.70886838 23.5078125 36.39453125 C24.40113281 36.22050781 25.29445313 36.04648438 26.21484375 35.8671875 C28.80928421 35.35461972 28.80928421 35.35461972 31.6953125 34.33203125 C49.92737467 33.16747021 49.92737467 33.16747021 56.6953125 38.33203125 C57.7678125 39.09515625 58.8403125 39.85828125 59.9453125 40.64453125 C64.8057455 45.39449987 67.17080686 49.75276122 67.30297852 56.48413086 C67.28807373 57.19706299 67.27316895 57.90999512 67.2578125 58.64453125 C67.24613037 59.3929126 67.23444824 60.14129395 67.22241211 60.91235352 C66.96682523 67.34659645 65.54121743 72.08596235 61.6953125 77.33203125 C60.80005859 78.55599609 60.80005859 78.55599609 59.88671875 79.8046875 C40.95469826 102.95972958 2.21591045 116.20835599 -26.3046875 121.33203125 C-27.9546875 121.33203125 -29.6046875 121.33203125 -31.3046875 121.33203125 C-31.3046875 136.51203125 -31.3046875 151.69203125 -31.3046875 167.33203125 C-24.8696875 166.34203125 -24.8696875 166.34203125 -18.3046875 165.33203125 C-15.05971643 164.97688949 -11.82863043 164.64631758 -8.578125 164.3671875 C-7.71595871 164.28943588 -6.85379242 164.21168427 -5.96549988 164.13157654 C-4.14219538 163.96727179 -2.31874133 163.80461875 -0.49514771 163.64355469 C4.32312946 163.21738495 9.14013565 162.77741533 13.95703125 162.3359375 C15.37548088 162.20603928 15.37548088 162.20603928 16.82258606 162.07351685 C23.93703774 161.41596092 31.03627543 160.6614444 38.1328125 159.83203125 C49.29289338 158.54297556 60.46919642 157.45705941 71.65530396 156.42089844 C73.61484981 156.23901678 75.57422721 156.05530946 77.53341675 155.86962891 C106.26285775 153.15541561 106.26285775 153.15541561 109.98632812 156.21386719 C111.6953125 158.33203125 111.6953125 158.33203125 111.97265625 160.5859375 C111.86050781 161.34777344 111.74835938 162.10960937 111.6328125 162.89453125 C111.53871094 163.65894531 111.44460938 164.42335938 111.34765625 165.2109375 C110.5806658 167.70480466 109.73120607 168.7257747 107.6953125 170.33203125 C105.13879622 171.18420334 103.22023444 171.56045421 100.57763672 171.80932617 C99.73861313 171.89021988 98.89958954 171.97111359 98.03514099 172.05445862 C97.11604446 172.13961227 96.19694794 172.22476593 95.25 172.3125 C93.7904464 172.45237587 93.7904464 172.45237587 92.30140686 172.59507751 C90.17737668 172.79857835 88.05320903 173.00064804 85.92892456 173.20147705 C80.16137498 173.74765307 74.39511526 174.30705926 68.62890625 174.8671875 C67.41826004 174.98471375 66.20761383 175.10223999 64.96028137 175.22332764 C51.17746534 176.56772804 37.40469451 178.00548517 23.6328125 179.45703125 C22.47062195 179.57895844 21.3084314 179.70088562 20.11102295 179.82650757 C3.62663548 181.55711858 -12.84252948 183.40146081 -29.3046875 185.33203125 C-29.31499496 186.31793747 -29.32530243 187.30384369 -29.33592224 188.31962585 C-29.43414141 197.66038249 -29.53691601 207.00107967 -29.64402676 216.3417387 C-29.69893589 221.14259963 -29.75230046 225.94346688 -29.80200195 230.74438477 C-29.85012297 235.3869323 -29.90247518 240.02941541 -29.95762825 244.67188454 C-29.97783798 246.43346339 -29.99658292 248.19505974 -30.01376152 249.95667076 C-30.2946646 278.45341863 -30.2946646 278.45341863 -33.3046875 283.33203125 C-36.73502288 285.87302042 -40.16462592 285.84953895 -44.3046875 285.33203125 C-47.43292517 282.53523231 -48.55021708 280.29582018 -48.78570557 276.20011902 C-48.79725187 274.54252692 -48.78677638 272.88469095 -48.75878906 271.22729492 C-48.75937317 270.31948273 -48.75995728 269.41167053 -48.76055908 268.47634888 C-48.7577784 265.48383996 -48.72668688 262.49233433 -48.6953125 259.5 C-48.68785006 257.42206873 -48.68215714 255.34413041 -48.67816162 253.26618958 C-48.66290559 247.80307509 -48.62362369 242.34038749 -48.5793457 236.87744141 C-48.53839255 231.30051447 -48.52015049 225.72351841 -48.5 220.14648438 C-48.45712969 209.208146 -48.38887844 198.27012416 -48.3046875 187.33203125 C-48.91823278 187.39085794 -49.53177807 187.44968464 -50.16391563 187.51029396 C-53.0000974 187.78039035 -55.83670571 188.04573352 -58.67333984 188.31103516 C-59.63799667 188.40361099 -60.6026535 188.49618683 -61.59654236 188.59156799 C-70.25248121 189.39539374 -78.86218895 189.70443675 -87.55273438 189.70263672 C-89.99413237 189.7071504 -92.43390252 189.74411754 -94.875 189.78125 C-96.44791065 189.7870971 -98.02082962 189.79108054 -99.59375 189.79296875 C-100.31341949 189.80733978 -101.03308899 189.82171082 -101.77456665 189.83651733 C-105.13768601 189.80560547 -107.00289787 189.55191429 -109.75146484 187.54931641 C-111.61859415 184.88391743 -111.82474974 182.65018964 -111.93359375 179.4296875 C-110.93117759 176.0862249 -108.94495513 174.54669546 -106.3046875 172.33203125 C-103.2121582 171.7043457 -103.2121582 171.7043457 -99.73046875 171.6953125 C-98.43431641 171.67654053 -97.13816406 171.65776855 -95.80273438 171.63842773 C-95.11945068 171.63946503 -94.43616699 171.64050232 -93.73217773 171.64157104 C-90.14762159 171.6465881 -86.56438075 171.57376775 -82.98046875 171.51171875 C-81.89344162 171.49621223 -81.89344162 171.49621223 -80.78445435 171.48039246 C-69.92008285 171.30137767 -59.12830894 170.25449899 -48.3046875 169.33203125 C-48.3046875 154.81203125 -48.3046875 140.29203125 -48.3046875 125.33203125 C-51.9346875 125.66203125 -55.5646875 125.99203125 -59.3046875 126.33203125 C-64.01349869 126.51809465 -68.71747204 126.51700595 -73.4296875 126.51953125 C-74.64011719 126.53177734 -75.85054687 126.54402344 -77.09765625 126.55664062 C-93.6670356 126.58368531 -93.6670356 126.58368531 -98.8671875 122.14453125 C-100.69388569 118.57055654 -100.80954077 116.29873549 -100.3046875 112.33203125 C-99.19360352 110.1394043 -99.19360352 110.1394043 -97.3046875 108.33203125 C-94.31225586 107.89379883 -94.31225586 107.89379883 -90.64453125 107.9765625 C-89.98626846 107.98495651 -89.32800568 107.99335052 -88.64979553 108.0019989 C-87.24172394 108.0218242 -85.83375483 108.05057175 -84.42602539 108.08740234 C-80.79106807 108.18249234 -77.15541969 108.2158007 -73.51953125 108.2578125 C-72.80662933 108.26793365 -72.09372742 108.27805481 -71.35922241 108.28848267 C-63.31097478 108.38941901 -55.32454057 107.9557976 -47.3046875 107.33203125 C-47.32535278 106.28063965 -47.32535278 106.28063965 -47.34643555 105.20800781 C-47.43462223 97.10013701 -46.91472348 89.14761946 -46.1171875 81.08203125 C-46.0525531 80.4239447 -45.9879187 79.76585815 -45.92132568 79.08782959 C-39.69612538 16.50463918 -39.69612538 16.50463918 -25.16015625 3.3984375 C-17.80526421 -1.88293605 -8.6327074 -2.50202198 0 0 Z " fill="#1A655B" transform="translate(254.3046875,134.66796875)"/>
<path d="M0 0 C5.24652269 4.91861502 6.50432911 10.2040743 8.125 17.0625 C10.07195398 25.4284676 10.07195398 25.4284676 14 33 C14 33.66 14 34.32 14 35 C20.14969366 38.18087603 26.44980299 39.36824106 33.234375 37.328125 C33.94078125 37.05484375 34.6471875 36.7815625 35.375 36.5 C40.85616067 34.46163242 46.22057627 34.26917171 52 35 C55.25 36.5 55.25 36.5 57 39 C57.77076207 44.22405402 57.33029572 47.73487662 54.37988281 52.29296875 C49.35288762 58.51178517 42.71183213 62.69958496 35.75 66.4375 C34.44844971 67.14181152 34.44844971 67.14181152 33.12060547 67.86035156 C20.29588721 74.6486834 6.84000724 79.52681297 -6.9375 84 C-8.33234619 84.45487793 -8.33234619 84.45487793 -9.75537109 84.91894531 C-10.62887207 85.19319336 -11.50237305 85.46744141 -12.40234375 85.75 C-13.55464478 86.11351562 -13.55464478 86.11351562 -14.73022461 86.484375 C-17.21693015 87.04928003 -19.45818287 87.08974749 -22 87 C-22.84549217 66.83344604 -19.81356118 46.73299858 -16.44805908 26.89837646 C-16.19298936 25.39440592 -15.94206728 23.88972549 -15.69549561 22.38433838 C-15.3451408 20.26620106 -14.97464993 18.15260189 -14.59765625 16.0390625 C-14.38633057 14.82428223 -14.17500488 13.60950195 -13.95727539 12.35791016 C-12.89264797 8.62343286 -11.30310664 6.10459341 -9 3 C-8.54625 2.38125 -8.0925 1.7625 -7.625 1.125 C-4.92875057 -0.74163422 -3.17976588 -0.57235786 0 0 Z " fill="#FCFDFD" transform="translate(247,151)"/>
<path d="M0 0 C3.1531193 1.3861957 5.18330057 2.97651539 7.53125 5.484375 C8.17707031 6.17273438 8.82289063 6.86109375 9.48828125 7.5703125 C10.15214844 8.28960937 10.81601562 9.00890625 11.5 9.75 C12.16386719 10.45382813 12.82773437 11.15765625 13.51171875 11.8828125 C23.58884243 22.7041549 23.58884243 22.7041549 23.4375 29 C23.20327808 34.03954912 22.24603154 37.79589439 18.53515625 41.4375 C14.57350575 44.84703784 12.27392084 46.14930326 7.125 46.1875 C6.26132812 46.20167969 5.39765625 46.21585938 4.5078125 46.23046875 C1.8758712 45.98859252 0.26019456 45.32983541 -2 44 C-2.09087891 45.62808594 -2.09087891 45.62808594 -2.18359375 47.2890625 C-2.26806064 48.73438486 -2.35270551 50.17969682 -2.4375 51.625 C-2.47681641 52.33785156 -2.51613281 53.05070312 -2.55664062 53.78515625 C-2.80309681 57.91803682 -3.23470053 61.92269024 -4 66 C-5.14626322 65.02133662 -6.29199788 64.04205413 -7.4375 63.0625 C-8.07558594 62.51722656 -8.71367187 61.97195312 -9.37109375 61.41015625 C-10.26991149 60.63204305 -11.15936528 59.84063472 -12 59 C-12.02632942 57.26432726 -11.98782465 55.52758794 -11.921875 53.79296875 C-11.89609375 52.73142578 -11.8703125 51.66988281 -11.84375 50.57617188 C-11.78156045 48.32827864 -11.70359054 46.08076318 -11.609375 43.83398438 C-11.58875 42.76857422 -11.568125 41.70316406 -11.546875 40.60546875 C-11.51432617 39.62731201 -11.48177734 38.64915527 -11.44824219 37.64135742 C-11.86703752 34.23630425 -11.86703752 34.23630425 -17 31 C-22.445 35.95 -22.445 35.95 -28 41 C-32.17799643 38.91100178 -32.92391901 37.94455388 -35 34 C-32.337658 31.30818725 -29.66933333 28.62237853 -27 25.9375 C-26.25621094 25.18533203 -25.51242187 24.43316406 -24.74609375 23.65820312 C-20.56684955 19.4607883 -16.30247066 15.45011256 -11.8125 11.58764648 C-9.25806546 9.35010772 -6.88473093 6.98035219 -4.5 4.5625 C-3.6440625 3.69753906 -2.788125 2.83257812 -1.90625 1.94140625 C-1.2771875 1.30074219 -0.648125 0.66007812 0 0 Z " fill="#2A4640" transform="translate(438,70)"/>
<path d="M0 0 C0.77441406 1.79980469 0.77441406 1.79980469 1.515625 4.171875 C1.7945459 5.05439941 2.0734668 5.93692383 2.36083984 6.84619141 C2.6542627 7.80444824 2.94768555 8.76270508 3.25 9.75 C3.55502441 10.72759277 3.86004883 11.70518555 4.17431641 12.71240234 C7.68678596 24.05744253 11.16226933 35.46421946 14 47 C10.89782379 48.83832664 8.60591321 49.47446226 5 49 C3.18138171 46.27207257 2.43484983 44.51433127 1.5625 41.4296875 C1.30726563 40.5325 1.05203125 39.6353125 0.7890625 38.7109375 C0.52867187 37.77507813 0.26828125 36.83921875 0 35.875 C-0.26039063 34.96234375 -0.52078125 34.0496875 -0.7890625 33.109375 C-2.38817336 27.43980013 -3.77458677 21.76179875 -5 16 C-5.66 16 -6.32 16 -7 16 C-7.20625 17.155 -7.4125 18.31 -7.625 19.5 C-9.24479591 26.92009449 -12.24650329 33.94308232 -15 41 C-18.2094929 40.39169379 -20.20531186 39.33192363 -22.78515625 37.34765625 C-23.82833008 36.55391602 -23.82833008 36.55391602 -24.89257812 35.74414062 C-25.60865234 35.18919922 -26.32472656 34.63425781 -27.0625 34.0625 C-28.49045118 32.96948455 -29.91882043 31.87701501 -31.34765625 30.78515625 C-31.97679932 30.29926025 -32.60594238 29.81336426 -33.25415039 29.31274414 C-34.79611023 28.15330937 -36.39478345 27.07014437 -38 26 C-37.76812988 26.71019287 -37.53625977 27.42038574 -37.29736328 28.15209961 C-36.23558739 31.4125104 -35.18025492 34.6749731 -34.125 37.9375 C-33.76019531 39.05447266 -33.39539063 40.17144531 -33.01953125 41.32226562 C-31.022921 47.5117574 -29.28473596 53.62365256 -28 60 C-31.13498292 61.85776765 -33.37471432 62.20140476 -37 62 C-39.81269284 55.32967038 -42.09257601 48.66732141 -44 41.6875 C-44.51182028 39.84862376 -45.02484028 38.01008101 -45.5390625 36.171875 C-45.7855957 35.28951172 -46.03212891 34.40714844 -46.28613281 33.49804688 C-47.53398574 29.13141514 -48.92568072 24.81285537 -50.3359375 20.49609375 C-51 18 -51 18 -51 14 C-46.14244918 12.34843272 -42.95000932 11.55235576 -38 13 C-34.86646271 14.97183386 -32.00773518 17.24409687 -29.125 19.5625 C-28.34125 20.17802734 -27.5575 20.79355469 -26.75 21.42773438 C-24.82507297 22.94185381 -22.90905367 24.46595037 -21 26 C-19.12014676 23.18022015 -18.4573055 21.42802209 -17.625 18.21875 C-17.36074219 17.29449219 -17.09648437 16.37023437 -16.82421875 15.41796875 C-16.27698759 13.48061482 -15.75840872 11.5349268 -15.26953125 9.58203125 C-13.22185527 2.68915014 -13.22185527 2.68915014 -9.58984375 0.640625 C-2.93309471 -1.46654736 -2.93309471 -1.46654736 0 0 Z " fill="#2B4741" transform="translate(198,6)"/>
<path d="M0 0 C3.63 0 7.26 0 11 0 C15.66899613 9.06206404 19.81379495 18.26403451 23.80639648 27.63916016 C24.82356244 30.02595822 25.84793818 32.40957277 26.87304688 34.79296875 C27.52646676 36.32013069 28.17947692 37.84746801 28.83203125 39.375 C29.13615433 40.08229248 29.4402774 40.78958496 29.75361633 41.51831055 C31.09703778 44.68323507 32.16305321 47.65221284 33 51 C29.37 51 25.74 51 22 51 C21.01 47.7 20.02 44.4 19 41 C5.635 41.495 5.635 41.495 -8 42 C-9.32 44.64 -10.64 47.28 -12 50 C-15.3 50 -18.6 50 -22 50 C-21.37865673 46.01603965 -20.12008024 42.84778928 -18.33984375 39.23828125 C-17.79674561 38.12686768 -17.25364746 37.0154541 -16.6940918 35.87036133 C-16.1144165 34.69626709 -15.53474121 33.52217285 -14.9375 32.3125 C-13.75121733 29.88735171 -12.57010968 27.45971087 -11.390625 25.03125 C-11.0987883 24.43105545 -10.8069516 23.8308609 -10.50627136 23.21247864 C-6.80087477 15.56505985 -3.37402685 7.79797747 0 0 Z " fill="#2B4641" transform="translate(249,0)"/>
<path d="M0 0 C4.08936921 6.44385451 4.08936921 6.44385451 3.69018555 8.92797852 C2.54068108 12.37893161 0.04858644 14.93035079 -2.25 17.6875 C-3.34413042 19.02597015 -4.43651355 20.36587011 -5.52734375 21.70703125 C-6.38175049 22.75624756 -6.38175049 22.75624756 -7.25341797 23.82666016 C-10.17247714 27.45895884 -12.99269578 31.16544574 -15.8125 34.875 C-16.89581952 36.2981876 -17.97915238 37.72136504 -19.0625 39.14453125 C-19.56523437 39.80533691 -20.06796875 40.46614258 -20.5859375 41.14697266 C-23.36298939 44.7860997 -26.17682063 48.39659651 -29 52 C-34.10336907 46.2381317 -34.10336907 46.2381317 -34 42 C-33.154375 41.030625 -32.30875 40.06125 -31.4375 39.0625 C-30.633125 38.051875 -29.82875 37.04125 -29 36 C-30.09310537 30.76379596 -32.94849107 26.31679337 -35.625 21.75 C-40 14.26150307 -40 14.26150307 -40 12 C-40.74765625 12.06960937 -41.4953125 12.13921875 -42.265625 12.2109375 C-45.27248363 12.37623601 -48.01616115 12.42503604 -51 12 C-53.98205588 8.87924385 -55 7.31744457 -55 3 C-49.57861355 2.56520982 -44.15667651 2.13834826 -38.73413086 1.71826172 C-36.89640199 1.57483705 -35.05882959 1.42939044 -33.22143555 1.28173828 C-22.11917658 0.39113415 -11.14138866 -0.23084316 0 0 Z " fill="#2A4641" transform="translate(496,141)"/>
<path d="M0 0 C3.375 0.125 3.375 0.125 7 1 C9.68362935 4.67392041 11.26771006 8.83892597 12.91796875 13.05078125 C13.18007645 13.70958786 13.44218414 14.36839447 13.7122345 15.04716492 C14.54141513 17.13401439 15.36454079 19.22319034 16.1875 21.3125 C16.75155353 22.73518454 17.31600265 24.1577123 17.88085938 25.58007812 C19.25923561 29.05131931 20.62938384 32.5256474 22 36 C24.97 27.09 27.94 18.18 31 9 C38 10 38 10 40 11 C39.3215383 15.74185731 38.13781842 20.23864549 36.75 24.8125 C36.29926677 26.31764475 35.84875247 27.82285507 35.3984375 29.328125 C35.16737305 30.09705078 34.93630859 30.86597656 34.69824219 31.65820312 C34.00835221 33.97198796 33.33349574 36.289596 32.6640625 38.609375 C32.44782227 39.35598389 32.23158203 40.10259277 32.00878906 40.87182617 C31.59980967 42.28545179 31.19276526 43.69963935 30.78808594 45.11450195 C29.41306838 49.83923444 27.77105475 54.40856615 26 59 C23.22583008 58.99389648 23.22583008 58.99389648 20 58 C18.43659007 55.28551019 17.40913945 53.01326645 16.38671875 50.09765625 C16.08683548 49.30475693 15.78695221 48.5118576 15.47798157 47.69493103 C14.52457197 45.15875767 13.60573127 42.61159454 12.6875 40.0625 C12.05109906 38.34876434 11.41245286 36.63586068 10.77148438 34.92382812 C9.60129054 31.79282512 8.44570405 28.65717041 7.3034668 25.51586914 C6.14993782 22.20953803 6.14993782 22.20953803 5 20 C2.86636478 25.5051521 1.04617492 31.00892827 -0.5625 36.6875 C-1.850804 41.22248962 -3.14106865 45.65678252 -5 50 C-7.97 49.34 -10.94 48.68 -14 48 C-13.3187789 42.93492074 -11.90801521 38.32953098 -10.3125 33.5 C-7.57178472 25.05163371 -5.17689538 16.53611866 -2.91723633 7.94726562 C-2.68029053 7.05458984 -2.44334473 6.16191406 -2.19921875 5.2421875 C-1.99127686 4.4466748 -1.78333496 3.65116211 -1.5690918 2.83154297 C-1 1 -1 1 0 0 Z " fill="#2C4742" transform="translate(312,6)"/>
<path d="M0 0 C3.37462715 0.54723683 5.08235 1.0549 8 3 C7.42645459 8.14142493 4.95331908 12.17408674 2.5 16.625 C1.67507923 18.1369291 0.85208061 19.64990894 0.03125 21.1640625 C-0.33419922 21.82873535 -0.69964844 22.4934082 -1.07617188 23.17822266 C-2.13071345 25.14709356 -2.13071345 25.14709356 -3 28 C-1.700625 28.433125 -1.700625 28.433125 -0.375 28.875 C2.75 29.91666667 5.875 30.95833333 9 32 C9.29245605 31.39937744 9.58491211 30.79875488 9.88623047 30.17993164 C11.20958325 27.47102167 12.54215185 24.76674976 13.875 22.0625 C14.33519531 21.11697266 14.79539062 20.17144531 15.26953125 19.19726562 C15.71425781 18.29814453 16.15898438 17.39902344 16.6171875 16.47265625 C17.22989502 15.22367554 17.22989502 15.22367554 17.85498047 13.94946289 C19 12 19 12 21 11 C23.4750171 12.11431765 25.67883419 13.58150978 28 15 C20 31 20 31 18.87841797 33.05566406 C17.79414226 35.10006358 17.79414226 35.10006358 18 38 C22.95 40.64 27.9 43.28 33 46 C31.68 48.64 30.36 51.28 29 54 C23.21802959 52.32198205 18.03563754 49.6485737 12.6875 46.9375 C11.72505371 46.4530542 10.76260742 45.9686084 9.77099609 45.46948242 C1.11795318 41.09720037 -7.45940657 36.58745403 -16 32 C-14.40087507 26.45696583 -11.83729162 21.61938189 -9.125 16.5625 C-8.69058594 15.74201172 -8.25617187 14.92152344 -7.80859375 14.07617188 C-5.28814976 9.33425547 -2.6898542 4.64781784 0 0 Z " fill="#2B4641" transform="translate(16,135)"/>
<path d="M0 0 C2.46800047 1.15173355 4.04783565 2.04783565 6 4 C5.85960574 6.95438365 5.11073024 7.8970146 2.93359375 9.921875 C2.10988281 10.52515625 1.28617188 11.1284375 0.4375 11.75 C-0.38878906 12.36359375 -1.21507813 12.9771875 -2.06640625 13.609375 C-2.70449219 14.06828125 -3.34257813 14.5271875 -4 15 C-2.49019037 18.36803687 -0.53759672 20.97407149 1.8125 23.8125 C2.60269531 24.76898438 3.39289063 25.72546875 4.20703125 26.7109375 C6.25370142 29.14290742 8.34310256 31.53343737 10.44921875 33.9140625 C11.33033325 34.91409302 11.33033325 34.91409302 12.22924805 35.93432617 C13.39474413 37.25280064 14.56664154 38.56564858 15.74536133 39.87231445 C16.28314209 40.48034912 16.82092285 41.08838379 17.375 41.71484375 C17.85710937 42.25230225 18.33921875 42.78976074 18.8359375 43.34350586 C20 45 20 45 21 49 C18.69 50.65 16.38 52.3 14 54 C12.66165198 52.45874115 11.32348423 50.91732548 9.98608398 49.37524414 C8.82030856 48.03208593 7.6531327 46.69014203 6.48461914 45.34936523 C3.48120422 41.89598533 0.50954242 38.42422273 -2.39453125 34.88671875 C-2.92788086 34.2436377 -3.46123047 33.60055664 -4.01074219 32.93798828 C-5.03010832 31.70596017 -6.04022649 30.4662102 -7.04003906 29.21826172 C-8.5662239 27.33073948 -8.5662239 27.33073948 -11 25 C-15.59399277 25 -15.93725609 25.46508106 -19.0625 28.5 C-22.68055556 32 -22.68055556 32 -26 32 C-28.25 29.6875 -28.25 29.6875 -30 27 C-28.77167663 23.31502988 -27.41383683 22.50049192 -24.375 20.125 C-18.79372893 15.67902685 -13.40263047 11.04965853 -8.04052734 6.34228516 C-7.42902832 5.80780762 -6.8175293 5.27333008 -6.1875 4.72265625 C-5.64480469 4.24578369 -5.10210937 3.76891113 -4.54296875 3.27758789 C-3 2 -3 2 0 0 Z " fill="#2B4641" transform="translate(89,54)"/>
<path d="M0 0 C4.86683746 0.52211283 8.37434801 2.88321522 12.375 5.5 C13.78826224 6.4048969 15.20234674 7.30851068 16.6171875 8.2109375 C17.33745117 8.67209961 18.05771484 9.13326172 18.79980469 9.60839844 C22.33019673 11.84133615 25.91231731 13.9857391 29.5 16.125 C30.15274902 16.51494141 30.80549805 16.90488281 31.47802734 17.30664062 C32.98456363 18.20574866 34.49215336 19.10309123 36 20 C35.39773952 24.21582339 34.42902856 24.57097144 31 28 C27.04 25.69 23.08 23.38 19 21 C16.38893581 24.26383024 14.26549321 27.02613905 12.1953125 30.546875 C11.44314453 31.8153125 11.44314453 31.8153125 10.67578125 33.109375 C9.90814453 34.41648437 9.90814453 34.41648437 9.125 35.75 C5.26693668 42.30180063 1.2854057 48.71778978 -3 55 C-8.53470184 53.55616474 -8.53470184 53.55616474 -10.40893555 51.31591797 C-11 49 -11 49 -9.71411133 46.07080078 C-9.0105249 44.95688965 -8.30693848 43.84297852 -7.58203125 42.6953125 C-7.20898361 42.09371307 -6.83593597 41.49211365 -6.45158386 40.87228394 C-5.25343899 38.94672459 -4.03390803 37.03586989 -2.8125 35.125 C-1.61371133 33.21861479 -0.4194716 31.30946546 0.77302551 29.3991394 C1.5163049 28.21189335 2.26401411 27.02740486 3.01689148 25.84622192 C5.24516398 22.32800597 7.19585403 18.75265193 9 15 C7.80890625 14.31164062 7.80890625 14.31164062 6.59375 13.609375 C5.5728125 12.99578125 4.551875 12.3821875 3.5 11.75 C2.4790625 11.14671875 1.458125 10.5434375 0.40625 9.921875 C-0.3878125 9.28765625 -1.181875 8.6534375 -2 8 C-2 4.23312136 -1.76462683 3.08809695 0 0 Z " fill="#2B4641" transform="translate(379,30)"/>
<path d="M0 0 C4.57015831 1.82806332 6.87647372 4.58959926 9 9 C9.43667157 13.85476038 8.72294546 17.05615454 5.75 20.9375 C1.25804988 24.30646259 -2.34373542 25.69260383 -8 25 C-12.31455798 22.71582225 -15.13452098 20.56005984 -17 16 C-17.94315587 9.502704 -17.94315587 9.502704 -15.72265625 5.96484375 C-10.8968731 0.21874009 -7.42724893 -0.69630459 0 0 Z " fill="#314B45" transform="translate(26,310)"/>
<path d="M0 0 C3.00559099 1.79335679 5.40823657 3.81647313 7 7 C7.37414872 12.61223087 7.16077934 16.14594602 4 21 C0.07602876 24.63811903 -3.21365606 24.49976763 -8.3671875 24.35546875 C-11.94354613 23.87260727 -13.65916419 22.71838997 -16 20 C-18.283827 16.95489733 -18.42154114 13.79117271 -18.31640625 10.02734375 C-17.63035671 5.63154485 -15.03226533 2.91429215 -11.8125 0.0625 C-7.67945839 -1.49887128 -4.21796081 -1.23796038 0 0 Z " fill="#37504A" transform="translate(218,488)"/>
<path d="M0 0 C4.36045847 2.22136563 7.13277421 4.43567029 9 9 C9.59554195 13.10262231 9.93026368 15.47588875 7.7578125 19.03515625 C5.28140151 22.03518648 3.75005886 23.74998038 0 25 C-4.79566077 25.39308695 -7.06907584 25.48270142 -11.375 23.25 C-14.40395108 20.65375621 -15.75437362 18.78318375 -16.30078125 14.81640625 C-16.32545885 10.07008034 -16.21307701 6.7670558 -13 3 C-9.04758244 -0.27486027 -4.98604927 -0.87989105 0 0 Z " fill="#1A655B" transform="translate(17,219)"/>
<path d="M0 0 C4.36350222 2.22291622 7.09544338 4.45022584 9 9 C9.54223844 13.26044487 9.30065535 15.42096006 7.3125 19.25 C4.54131763 22.54546012 2.45309777 24.64101008 -1.921875 25.28125 C-6.41340304 25.48387533 -9.43631651 24.95276632 -13 22 C-16.09343127 18.37321851 -16.62789555 14.92538453 -16.49609375 10.2890625 C-15.62408526 6.26546427 -13.04201594 3.64797243 -10 1 C-6.78314421 -0.60842789 -3.4888991 -0.46778535 0 0 Z " fill="#19645A" transform="translate(499,219)"/>
<path d="M0 0 C3.88594115 1.94297057 7.01548427 4.242509 10.375 6.9375 C11.62494667 7.92975468 12.87494829 8.92194015 14.125 9.9140625 C14.764375 10.42356445 15.40375 10.93306641 16.0625 11.45800781 C19.15747287 13.92119438 22.26541342 16.36780326 25.375 18.8125 C26.24801758 19.49940918 26.24801758 19.49940918 27.13867188 20.20019531 C31.37967033 23.5303264 35.66531644 26.79233417 40 30 C38.87548273 32.9719385 37.77706209 35.33440687 36 38 C32.85714384 37.40477837 31.00754301 36.45976703 28.56640625 34.41015625 C27.92380859 33.877854 27.28121094 33.34555176 26.61914062 32.79711914 C25.94044922 32.22469482 25.26175781 31.65227051 24.5625 31.0625 C23.12742241 29.87364634 21.69120882 28.68616273 20.25390625 27.5 C19.5386377 26.90832031 18.82336914 26.31664062 18.08642578 25.70703125 C10.58189745 19.56712227 2.77361641 13.79210634 -5 8 C-3.35 5.36 -1.7 2.72 0 0 Z " fill="#2C4741" transform="translate(38,103)"/>
<path d="M0 0 C4.2664884 0.43388018 5.84921968 1.1926857 8.6875 4.375 C9 7.125 9 7.125 8.6875 9.375 C9.31398438 9.14683594 9.94046875 8.91867187 10.5859375 8.68359375 C11.40320313 8.39613281 12.22046875 8.10867188 13.0625 7.8125 C13.87460937 7.52246094 14.68671875 7.23242188 15.5234375 6.93359375 C17.6875 6.375 17.6875 6.375 19.6875 7.375 C18.8125 9.6875 18.8125 9.6875 16.6875 12.375 C14.10431712 13.34158314 11.55810859 14.00098011 8.8671875 14.6015625 C7.78824219 14.98441406 7.78824219 14.98441406 6.6875 15.375 C6.3575 16.365 6.0275 17.355 5.6875 18.375 C7.6675 19.365 9.6475 20.355 11.6875 21.375 C11.3575 22.695 11.0275 24.015 10.6875 25.375 C5.62709451 24.73611113 1.40738466 22.51220723 -3.125 20.3125 C-3.91326172 19.93544922 -4.70152344 19.55839844 -5.51367188 19.16992188 C-7.44902473 18.24329839 -9.38109549 17.30982533 -11.3125 16.375 C-10.73224158 12.69133699 -9.72433904 9.91972757 -7.875 6.6875 C-7.44316406 5.92050781 -7.01132812 5.15351563 -6.56640625 4.36328125 C-4.54505814 1.15809063 -3.8762574 0.43882159 0 0 Z " fill="#304A45" transform="translate(467.3125,354.625)"/>
<path d="M0 0 C7.33188451 12.06705992 7.33188451 12.06705992 6 18 C3.37586666 21.0100353 1.84356926 21.89877169 -2.125 22.375 C-5 22 -5 22 -8 20 C-8.66 23.3 -9.32 26.6 -10 30 C-10.66 30 -11.32 30 -12 30 C-14 27 -14 27 -13.7578125 24.9140625 C-13.54898438 24.15867187 -13.34015625 23.40328125 -13.125 22.625 C-12.28273592 19.31533412 -11.77804613 16.44028502 -12 13 C-14.64 13.66 -17.28 14.32 -20 15 C-20.33 13.68 -20.66 12.36 -21 11 C-18.2089613 9.35309997 -15.41706312 7.70766259 -12.625 6.0625 C-11.8309375 5.59392578 -11.036875 5.12535156 -10.21875 4.64257812 C-9.45820312 4.19462891 -8.69765625 3.74667969 -7.9140625 3.28515625 C-7.2123291 2.87144775 -6.5105957 2.45773926 -5.78759766 2.03149414 C-2.26698225 0 -2.26698225 0 0 0 Z " fill="#2C4741" transform="translate(53,369)"/>
<path d="M0 0 C2.43633525 3.04541906 2.66194844 4.78050431 2.44140625 8.59375 C1.78459891 11.43022771 0.27941255 12.79044059 -2 14.5 C-0.02 16.81 1.96 19.12 4 21.5 C1.3125 21.8125 1.3125 21.8125 -2 21.5 C-3.70779973 19.87550757 -5.37550757 18.20779973 -7 16.5 C-9.67790896 15.62761142 -9.67790896 15.62761142 -12 15.5 C-12 17.81 -12 20.12 -12 22.5 C-13.65 22.5 -15.3 22.5 -17 22.5 C-18.06059488 14.81068715 -18.09928082 7.25493514 -18 -0.5 C-5.25 -2.625 -5.25 -2.625 0 0 Z " fill="#405853" transform="translate(286,491.5)"/>
<path d="M0 0 C3.36836489 1.45761081 5.56505752 3.3240226 8.125 5.9375 C8.80820312 6.62714844 9.49140625 7.31679687 10.1953125 8.02734375 C12.55545616 10.60715446 13.90542726 12.37852201 14.4375 15.875 C14 19 14 19 11.9375 21.875 C8.18917403 24.58655495 6.55635642 24.62219153 2 24 C-0.50763073 22.31955798 -2.42830638 20.23859967 -4.4375 18 C-4.97826172 17.42765625 -5.51902344 16.8553125 -6.07617188 16.265625 C-7.40062987 14.85912094 -8.70265599 13.43155201 -10 12 C-8.52278578 8.54798361 -6.56205999 6.35038064 -3.875 3.75 C-3.15054687 3.04359375 -2.42609375 2.3371875 -1.6796875 1.609375 C-1.12539063 1.07828125 -0.57109375 0.5471875 0 0 Z " fill="#F7F8F8" transform="translate(438,83)"/>
<path d="M0 0 C-0.417313 4.92784505 -2.54985927 6.9777145 -6.0625 10.3125 C-6.98160156 11.19550781 -7.90070312 12.07851563 -8.84765625 12.98828125 C-9.55792969 13.65214844 -10.26820312 14.31601562 -11 15 C-6.71 15 -2.42 15 2 15 C2 16.65 2 18.3 2 20 C-6.02332397 20.90041311 -13.92970447 21.11547323 -22 21 C-21.164372 16.37590307 -18.3516499 14.22323683 -14.9375 11.25 C-14.36966797 10.74339844 -13.80183594 10.23679687 -13.21679688 9.71484375 C-11.8180135 8.46886864 -10.40989267 7.23339027 -9 6 C-13.95 6 -18.9 6 -24 6 C-24 4.35 -24 2.7 -24 1 C-15.98340366 -0.12513633 -8.07861415 -0.09579384 0 0 Z " fill="#344E48" transform="translate(27,279)"/>
<path d="M0 0 C1.32 0.33 2.64 0.66 4 1 C3.53125935 3.92962906 2.42749647 6.10306251 0.9375 8.625 C-1.16595584 11.64048478 -1.16595584 11.64048478 -1 14 C0.32 14.66 1.64 15.32 3 16 C3.268125 15.278125 3.53625 14.55625 3.8125 13.8125 C4.98982498 11.02409874 6.39145884 8.55904276 8 6 C9.32 6.33 10.64 6.66 12 7 C10.83236367 10.95199987 9.53585145 13.7725527 7 17 C7 17.66 7 18.32 7 19 C8.32 19.33 9.64 19.66 11 20 C12.98 16.7 14.96 13.4 17 10 C18.32 10.66 19.64 11.32 21 12 C19.61219205 15.89006773 17.7847773 18.96558708 15.375 22.3125 C14.74335938 23.19550781 14.11171875 24.07851563 13.4609375 24.98828125 C12.73777344 25.98408203 12.73777344 25.98408203 12 27 C7.37930741 25.65806233 3.75046395 23.78862549 -0.25 21.125 C-1.28640625 20.44695312 -2.3228125 19.76890625 -3.390625 19.0703125 C-7.47969064 15.82599395 -7.47969064 15.82599395 -8 13 C-6.81301179 10.53058734 -5.64771477 8.49218517 -4.125 6.25 C-3.73441406 5.64800781 -3.34382813 5.04601562 -2.94140625 4.42578125 C-1.97520812 2.94113535 -0.98942212 1.46927061 0 0 Z " fill="#304A44" transform="translate(450,379)"/>
<path d="M0 0 C3.43804294 0.30670504 6.87531287 0.6213595 10.3125 0.9375 C11.28896484 1.02451172 12.26542969 1.11152344 13.27148438 1.20117188 C14.20927734 1.28818359 15.14707031 1.37519531 16.11328125 1.46484375 C16.97735596 1.543396 17.84143066 1.62194824 18.73168945 1.70288086 C21 2 21 2 24 3 C24 4.32 24 5.64 24 7 C20.7 7 17.4 7 14 7 C13.67 10.63 13.34 14.26 13 18 C15.97 18.33 18.94 18.66 22 19 C22 20.32 22 21.64 22 23 C2.76595745 23.38297872 2.76595745 23.38297872 -2 21 C-2 19.68 -2 18.36 -2 17 C1.63 17 5.26 17 9 17 C9 13.37 9 9.74 9 6 C6.03 5.67 3.06 5.34 0 5 C0 3.35 0 1.7 0 0 Z " fill="#405853" transform="translate(481,280)"/>
<path d="M0 0 C1.32 0.66 2.64 1.32 4 2 C2.35 4.31 0.7 6.62 -1 9 C0.50223584 13.20626034 3.28550034 14.73900021 7 17 C8.65 15.02 10.3 13.04 12 11 C13.32 11.33 14.64 11.66 16 12 C14.4928658 17.25487456 11.06992802 20.47940694 7.375 24.3125 C6.45847656 25.28026367 6.45847656 25.28026367 5.5234375 26.26757812 C4.02189664 27.8512345 2.51406957 29.42833341 1 31 C-0.32 30.34 -1.64 29.68 -3 29 C-2.62746094 28.52949219 -2.25492188 28.05898438 -1.87109375 27.57421875 C-1.39800781 26.95160156 -0.92492187 26.32898438 -0.4375 25.6875 C0.27599609 24.76517578 0.27599609 24.76517578 1.00390625 23.82421875 C1.33261719 23.22222656 1.66132812 22.62023437 2 22 C0.77065985 18.31197956 -0.93859378 17.27643027 -4 15 C-6.88437779 16.29299694 -8.87219421 17.65941363 -11 20 C-12.32 19.34 -13.64 18.68 -15 18 C-12.12525291 13.44147246 -8.93814014 9.54546392 -5.25 5.625 C-4.74339844 5.07972656 -4.23679687 4.53445313 -3.71484375 3.97265625 C-2.4803065 2.64494637 -1.24068282 1.32196894 0 0 Z " fill="#324C46" transform="translate(95,428)"/>
<path d="M0 0 C3 1 3 1 4.16674805 3.04125977 C4.52808838 3.91580811 4.88942871 4.79035645 5.26171875 5.69140625 C5.65810547 6.63564453 6.05449219 7.57988281 6.46289062 8.55273438 C6.86701172 9.54595703 7.27113281 10.53917969 7.6875 11.5625 C8.10322266 12.55958984 8.51894531 13.55667969 8.94726562 14.58398438 C9.97466855 17.05211325 10.99171046 19.52401524 12 22 C10.35 22.33 8.7 22.66 7 23 C4 17.25 4 17.25 4 15 C3.37351562 15.28875 2.74703125 15.5775 2.1015625 15.875 C0.87566406 16.431875 0.87566406 16.431875 -0.375 17 C-1.59316406 17.556875 -1.59316406 17.556875 -2.8359375 18.125 C-5 19 -5 19 -7 19 C-6.484375 19.886875 -5.96875 20.77375 -5.4375 21.6875 C-3.9131063 25.20023331 -3.85052105 26.44706507 -5 30 C-5.99 30 -6.98 30 -8 30 C-9.50605402 26.71106997 -11.00380532 23.41842554 -12.5 20.125 C-12.92925781 19.18785156 -13.35851562 18.25070312 -13.80078125 17.28515625 C-14.20683594 16.38925781 -14.61289062 15.49335938 -15.03125 14.5703125 C-15.40830078 13.74289551 -15.78535156 12.91547852 -16.17382812 12.06298828 C-17 10 -17 10 -17 8 C-15.68 7.67 -14.36 7.34 -13 7 C-11.68 9.31 -10.36 11.62 -9 14 C-5.44219804 13.39009109 -2.3171411 12.4216319 1 11 C0.505 9.906875 0.01 8.81375 -0.5 7.6875 C-2 4 -2 4 -2 1 C-1.34 0.67 -0.68 0.34 0 0 Z " fill="#334C47" transform="translate(356,467)"/>
<path d="M0 0 C4.60350025 2.93840442 8.74128815 6.18677779 12.875 9.75 C13.46796875 10.25660156 14.0609375 10.76320313 14.671875 11.28515625 C16.11705495 12.52055202 17.55888175 13.75986857 19 15 C18.01 16.485 18.01 16.485 17 18 C13.89656201 16.79310745 10.98806107 15.49403054 8 14 C6.02 16.64 4.04 19.28 2 22 C3.98 23.65 5.96 25.3 8 27 C7.34 28.32 6.68 29.64 6 31 C1.82466709 29.28256011 -1.26388706 26.36722009 -4.625 23.4375 C-8.55820931 19.85426322 -8.55820931 19.85426322 -13 17 C-12.34 15.68 -11.68 14.36 -11 13 C-7.54074837 14.2491742 -4.85306797 15.67527795 -2 18 C-0.96704564 16.90716423 0.05107835 15.80029421 1.0625 14.6875 C1.63097656 14.07261719 2.19945312 13.45773437 2.78515625 12.82421875 C3.18605469 12.22222656 3.58695312 11.62023437 4 11 C2.77065985 7.31197956 1.06140622 6.27643027 -2 4 C-1.34 2.68 -0.68 1.36 0 0 Z " fill="#304A44" transform="translate(435,402)"/>
<path d="M0 0 C0.99 0.66 1.98 1.32 3 2 C2.67 2.99 2.34 3.98 2 5 C0.01432292 4.93489583 -1.97135417 4.86979167 -3.95703125 4.8046875 C-6.31359719 4.86745538 -6.31359719 4.86745538 -9 7 C-9 7.99 -9 8.98 -9 10 C-7.66195313 9.93039062 -7.66195313 9.93039062 -6.296875 9.859375 C-5.12640625 9.82328125 -3.9559375 9.7871875 -2.75 9.75 C-1.00976562 9.68039062 -1.00976562 9.68039062 0.765625 9.609375 C4 10 4 10 6.38671875 11.83203125 C8 14 8 14 8.5625 16.9375 C7.81993888 20.98033275 6.10854016 22.40954987 3 25 C0.6603331 26.16983345 -0.83391527 26.1661241 -3.4375 26.1875 C-4.61119141 26.20876953 -4.61119141 26.20876953 -5.80859375 26.23046875 C-8 26 -8 26 -11 24 C-10.34 22.68 -9.68 21.36 -9 20 C-7.14375 20.309375 -7.14375 20.309375 -5.25 20.625 C-1.88090165 21.06107124 0.12841921 21.03403639 3 19 C3 18.01 3 17.02 3 16 C1.53626953 15.94392578 1.53626953 15.94392578 0.04296875 15.88671875 C-1.22933594 15.82097656 -2.50164062 15.75523437 -3.8125 15.6875 C-5.07707031 15.62949219 -6.34164063 15.57148438 -7.64453125 15.51171875 C-11 15 -11 15 -12.91796875 13.671875 C-14.81858004 10.7351904 -14.47309897 8.37083015 -14 5 C-9.47174866 0.47174866 -6.31814197 -0.33253379 0 0 Z " fill="#2F4944" transform="translate(327,480)"/>
<path d="M0 0 C4.9145115 0.57335967 6.29902506 1.98652506 9.75 5.4375 C11.10439668 8.14629335 10.81501451 10.44683268 10.75 13.4375 C9.43 13.4375 8.11 13.4375 6.75 13.4375 C6.09 11.1275 5.43 8.8175 4.75 6.4375 C2.275 5.9425 2.275 5.9425 -0.25 5.4375 C0.17778163 8.43197142 0.64811879 10.2885967 2.375 12.8125 C4.2754403 16.4406133 3.83053554 18.54757205 2.75 22.4375 C1.125 24.4375 1.125 24.4375 -1.25 25.4375 C-4.82057963 25.56974369 -7.14335083 25.27777847 -10.03515625 23.08203125 C-13.12683724 19.88802512 -14.61697759 17.50859229 -14.625 13 C-14.50125 11.824375 -14.3775 10.64875 -14.25 9.4375 C-12.93 9.7675 -11.61 10.0975 -10.25 10.4375 C-9.96125 11.55125 -9.6725 12.665 -9.375 13.8125 C-8.55758671 17.44041092 -8.55758671 17.44041092 -6.25 19.4375 C-4.93 19.4375 -3.61 19.4375 -2.25 19.4375 C-2.64072524 16.07726296 -3.01350569 13.8013374 -4.875 10.9375 C-6.675043 7.66469454 -6.2691191 5.96521996 -5.25 2.4375 C-3.25 0.4375 -3.25 0.4375 0 0 Z " fill="#324C46" transform="translate(75.25,408.5625)"/>
<path d="M0 0 C-0.90723613 4.68738665 -1.9547267 9.34193744 -3 14 C-1.05391112 13.79452528 -1.05391112 13.79452528 1 13 C2.2381618 11.25783608 2.2381618 11.25783608 3.0625 9.125 C4.33450857 6.16607877 5.4735646 4.05272876 8 2 C11.48634568 1.48075703 13.31163508 1.60147294 16.375 3.375 C18.90493225 7.46181363 18.85901194 11.33049919 18 16 C16.62055709 18.76979052 15.41510496 19.91422753 13 22 C11.68 22 10.36 22 9 22 C9 20.68 9 19.36 9 18 C9.99 17.34 10.98 16.68 12 16 C12.57748803 14.03638136 12.57748803 14.03638136 12.6875 11.875 C12.790625 10.59625 12.89375 9.3175 13 8 C10.6147267 7.87184635 10.6147267 7.87184635 8 9 C6.72775805 10.96227148 5.81136789 12.94015444 4.89453125 15.08984375 C4 17 4 17 2 19 C-3.22094586 19.55541977 -3.22094586 19.55541977 -5.66015625 17.81640625 C-7.97759788 14.67468509 -7.51968511 11.45068108 -7.4296875 7.67578125 C-7 5 -7 5 -4.625 1.8125 C-2 0 -2 0 0 0 Z " fill="#364F4A" transform="translate(481,312)"/>
<path d="M0 0 C0.33 1.32 0.66 2.64 1 4 C-0.07121094 4.43570312 -1.14242187 4.87140625 -2.24609375 5.3203125 C-3.64375575 5.92065054 -5.04086314 6.52228092 -6.4375 7.125 C-7.49807617 7.55039062 -7.49807617 7.55039062 -8.58007812 7.984375 C-10.91439262 8.95321428 -10.91439262 8.95321428 -14 11 C-15.28167529 13.97621836 -15.28167529 13.97621836 -15 17 C-14.34 17.99 -13.68 18.98 -13 20 C-7.85425257 20.9005058 -3.93767465 18.89172799 0.6328125 16.77734375 C3.25409911 15.91655821 4.4480929 16.06508472 7 17 C7 17.99 7 18.98 7 20 C4.98757061 21.01680643 2.9645868 22.01273789 0.9375 23 C-0.18785156 23.556875 -1.31320313 24.11375 -2.47265625 24.6875 C-6.30249019 26.11255449 -8.94840093 26.4104719 -13 26 C-16.54005308 24.21586966 -18.73701558 21.78895325 -20 18 C-20.3589003 14.12387675 -20.51591348 11.82571761 -18.42578125 8.48046875 C-15.56387001 5.55403777 -12.61792551 4.14994203 -8.875 2.6875 C-7.92560547 2.29208008 -7.92560547 2.29208008 -6.95703125 1.88867188 C-2.33591721 0 -2.33591721 0 0 0 Z " fill="#2D4842" transform="translate(40,340)"/>
<path d="M0 0 C1.32 0 2.64 0 4 0 C4.04898438 1.19238281 4.09796875 2.38476562 4.1484375 3.61328125 C4.22347604 5.17971068 4.2990234 6.74611579 4.375 8.3125 C4.4059375 9.09818359 4.436875 9.88386719 4.46875 10.69335938 C4.50742188 11.45068359 4.54609375 12.20800781 4.5859375 12.98828125 C4.6173584 13.68477783 4.6487793 14.38127441 4.68115234 15.09887695 C4.92118253 17.32532739 4.92118253 17.32532739 7 20 C10 20.5 10 20.5 13 20 C15.48044315 16.27933528 15.44381173 13.13459526 15.625 8.8125 C15.68300781 7.68811523 15.68300781 7.68811523 15.7421875 6.54101562 C15.83628216 4.69440801 15.91922319 2.8472381 16 1 C17.65 1 19.3 1 21 1 C21.08132187 3.56314499 21.14064175 6.12368418 21.1875 8.6875 C21.21263672 9.40873047 21.23777344 10.12996094 21.26367188 10.87304688 C21.32679275 15.48087064 20.79834732 18.31351222 18 22 C16.06259347 23.93740653 12.69840128 23.2625055 10.125 23.3125 C8.86945313 23.34988281 7.61390625 23.38726563 6.3203125 23.42578125 C3 23 3 23 1.06640625 21.58984375 C-0.60596974 17.52835919 -0.31254285 13.59123142 -0.1875 9.25 C-0.17396484 8.36183594 -0.16042969 7.47367187 -0.14648438 6.55859375 C-0.11121309 4.37177422 -0.06192752 2.18620034 0 0 Z " fill="#28433D" transform="translate(236,491)"/>
<path d="M0 0 C5.46737191 1.74807129 10.75824848 3.65794081 16 6 C15.67 7.65 15.34 9.3 15 11 C14.30132812 10.71125 13.60265625 10.4225 12.8828125 10.125 C11.51769531 9.568125 11.51769531 9.568125 10.125 9 C9.22007812 8.62875 8.31515625 8.2575 7.3828125 7.875 C5.11016142 6.88509774 5.11016142 6.88509774 3 7 C2.67 8.65 2.34 10.3 2 12 C6.455 13.98 6.455 13.98 11 16 C10.67 17.32 10.34 18.64 10 20 C6 18.66666667 2 17.33333333 -2 16 C-2.144375 16.78375 -2.28875 17.5675 -2.4375 18.375 C-3 21 -3 21 -4 23 C-5.65 22.67 -7.3 22.34 -9 22 C-8.51789063 20.83082031 -8.03578125 19.66164063 -7.5390625 18.45703125 C-6.90102818 16.90885973 -6.26300809 15.36068233 -5.625 13.8125 C-5.30789062 13.04357422 -4.99078125 12.27464844 -4.6640625 11.48242188 C-3.0901529 7.66241211 -1.52382888 3.84035663 0 0 Z " fill="#314B45" transform="translate(154,469)"/>
<path d="M0 0 C0 1.32 0 2.64 0 4 C-0.763125 4.268125 -1.52625 4.53625 -2.3125 4.8125 C-5.72787947 6.25525292 -5.72787947 6.25525292 -8 9 C-7.92992173 12.85430472 -7.48389935 15.25553947 -5.375 18.5 C-2.9661619 20.31705834 -2.9661619 20.31705834 0.5625 20 C4.00244323 19.29845977 4.00244323 19.29845977 5.875 17.125 C7.11987426 14.91437553 7.11987426 14.91437553 8 12 C9.32 12 10.64 12 12 12 C11.76001446 18.11963135 11.76001446 18.11963135 9.66796875 20.54296875 C5.44932749 24.04310663 2.62655401 25.41183513 -2.8984375 25.3515625 C-7.2543031 24.6228861 -9.77042415 21.62080453 -12.375 18.1875 C-13.69757596 13.55848413 -13.67987371 9.52971585 -11.75 5.1875 C-8.12306194 0.65382743 -5.86840398 -0.40011845 0 0 Z " fill="#2E4843" transform="translate(418,427)"/>
<path d="M0 0 C2.875 1.5 2.875 1.5 5 4 C5.71755985 6.8239452 5.71196877 9.17527837 5 12 C2.28707652 15.2883921 0.65183071 15.90851499 -3.5625 16.5 C-7 16 -7 16 -9.4375 14.5 C-11.33241448 11.46813683 -11.64036692 9.43919544 -11.44921875 5.90625 C-11 4 -11 4 -8.875 1.5 C-5.48749667 -0.26739304 -3.7664742 -0.6277457 0 0 Z " fill="#F8F9F9" transform="translate(25,314)"/>
<path d="M0 0 C2.68260718 0.53943731 3.57532995 1.21336747 5.15625 3.43359375 C6.01731961 7.64585319 5.83820258 11.31519151 3.59375 14.99609375 C0.20106874 16.99690577 -1.97089161 16.98685923 -5.84375 16.43359375 C-8.28125 14.93359375 -8.28125 14.93359375 -9.84375 12.43359375 C-10.5237089 8.66291259 -10.2488956 5.51398202 -8.90625 1.93359375 C-5.9901395 -0.18721388 -3.53126964 -0.00588545 0 0 Z " fill="#F9FAFA" transform="translate(214.84375,491.56640625)"/>
<path d="M0 0 C0.66 0 1.32 0 2 0 C3.17495143 2.93425371 4.33850852 5.87289513 5.5 8.8125 C5.83386719 9.64587891 6.16773438 10.47925781 6.51171875 11.33789062 C6.82753906 12.14033203 7.14335937 12.94277344 7.46875 13.76953125 C7.90864258 14.87711792 7.90864258 14.87711792 8.35742188 16.00708008 C9 18 9 18 9 21 C3.06 21 -2.88 21 -9 21 C-6.08629827 13.95855414 -3.13886728 6.94408627 0 0 Z " fill="#F3F5F4" transform="translate(254,11)"/>
<path d="M0 0 C-8.33395005 12.91304348 -8.33395005 12.91304348 -13 18 C-13.66 18 -14.32 18 -15 18 C-17.64 12.72 -20.28 7.44 -23 2 C-20.504375 1.67 -18.00875 1.34 -15.4375 1 C-14.66591553 0.89558594 -13.89433105 0.79117188 -13.09936523 0.68359375 C-8.69286474 0.11754908 -4.44236249 -0.09340053 0 0 Z " fill="#F4F5F5" transform="translate(488,150)"/>
<path d="M0 0 C1.32 0.33 2.64 0.66 4 1 C2.76388336 7.83499788 1.08277943 14.37297454 -1 21 C2.63 21.66 6.26 22.32 10 23 C10 24.65 10 26.3 10 28 C6.14435523 27.49267832 2.43312202 26.65141866 -1.3125 25.625 C-2.17488281 25.39039063 -3.03726563 25.15578125 -3.92578125 24.9140625 C-4.61027344 24.61242187 -5.29476562 24.31078125 -6 24 C-7.17791932 20.46624203 -6.75415072 19.55148893 -5.56640625 16.11328125 C-5.0878418 14.7065918 -5.0878418 14.7065918 -4.59960938 13.27148438 C-4.25736328 12.29501953 -3.91511719 11.31855469 -3.5625 10.3125 C-3.22412109 9.32443359 -2.88574219 8.33636719 -2.53710938 7.31835938 C-1.69940026 4.87602435 -0.85342917 2.43687729 0 0 Z " fill="#344D48" transform="translate(179,479)"/>
<path d="M0 0 C2.6664882 -0.21620175 4.44004321 -0.30894168 6.8125 1 C8.70261784 4.18335637 8.67777007 7.45419235 8 11 C6 13.5 6 13.5 4 15 C5.98 17.31 7.96 19.62 10 22 C7.375 22.375 7.375 22.375 4 22 C2.28424612 20.59964206 0.91237822 19.1071638 -0.5078125 17.41015625 C-1.93074416 15.83009441 -1.93074416 15.83009441 -4.1171875 15.49609375 C-4.73851562 15.33238281 -5.35984375 15.16867187 -6 15 C-6.33 14.01 -6.66 13.02 -7 12 C-4.03 11.34 -1.06 10.68 2 10 C3.08084521 6.36380344 3.08084521 6.36380344 3 4 C0.36 3.67 -2.28 3.34 -5 3 C-5 2.67 -5 2.34 -5 2 C-3.35 2 -1.7 2 0 2 C0 1.34 0 0.68 0 0 Z " fill="#2B4640" transform="translate(280,491)"/>
<path d="M0 0 C1.32 0.66 2.64 1.32 4 2 C4 2.66 4 3.32 4 4 C1.43600465 6.27548316 -1.44468723 8.15900032 -4.25 10.125 C-5.02730469 10.68832031 -5.80460937 11.25164062 -6.60546875 11.83203125 C-7.35957031 12.36441406 -8.11367188 12.89679688 -8.890625 13.4453125 C-9.58188477 13.93531738 -10.27314453 14.42532227 -10.98535156 14.93017578 C-13 16 -13 16 -17 16 C-17 14.68 -17 13.36 -17 12 C-15.43945312 10.44433594 -15.43945312 10.44433594 -13.28125 8.984375 C-12.51425781 8.45585937 -11.74726562 7.92734375 -10.95703125 7.3828125 C-10.14621094 6.84398437 -9.33539063 6.30515625 -8.5 5.75 C-7.68917969 5.19570313 -6.87835938 4.64140625 -6.04296875 4.0703125 C-4.03654607 2.70122408 -2.02240554 1.34531733 0 0 Z " fill="#324C46" transform="translate(66,394)"/>
<path d="M0 0 C1.32 0 2.64 0 4 0 C4.48066535 1.89545392 4.95946743 3.79138039 5.4375 5.6875 C5.83775391 7.27111328 5.83775391 7.27111328 6.24609375 8.88671875 C7.50623793 14.09052659 8.1055041 18.61929067 8 24 C6.68 24 5.36 24 4 24 C3.32492934 20.93929066 2.66145078 17.8761791 2 14.8125 C1.80921875 13.94818359 1.6184375 13.08386719 1.421875 12.19335938 C1.24140625 11.35224609 1.0609375 10.51113281 0.875 9.64453125 C0.70742188 8.87471924 0.53984375 8.10490723 0.3671875 7.31176758 C-0.02550915 4.83939753 -0.06185285 2.49924191 0 0 Z " fill="#38514C" transform="translate(297,487)"/>
<path d="M0 0 C1.65 0 3.3 0 5 0 C5.08132187 2.56314499 5.14064175 5.12368418 5.1875 7.6875 C5.22520508 8.7693457 5.22520508 8.7693457 5.26367188 9.87304688 C5.3262966 14.44465213 4.92192805 17.41650333 2 21 C-0.6875 21.8125 -0.6875 21.8125 -3 22 C-2.68289062 21.18273437 -2.36578125 20.36546875 -2.0390625 19.5234375 C-0.84890917 15.48765441 -0.55640657 11.80490968 -0.375 7.625 C-0.33632812 6.88894531 -0.29765625 6.15289062 -0.2578125 5.39453125 C-0.16442002 3.59672594 -0.0811629 1.79839892 0 0 Z " fill="#203C35" transform="translate(252,492)"/>
<path d="M0 0 C5.54955043 0.57610313 10.26029497 2.02098548 15.4375 4.0625 C16.16904297 4.34416016 16.90058594 4.62582031 17.65429688 4.91601562 C19.43873546 5.60413247 21.21973905 6.30114606 23 7 C22.67 8.32 22.34 9.64 22 11 C16.86243532 10.35983027 12.41209819 8.80299667 7.625 6.9375 C6.88894531 6.65583984 6.15289062 6.37417969 5.39453125 6.08398438 C3.5944264 5.39433382 1.7969379 4.69786068 0 4 C0 2.68 0 1.36 0 0 Z " fill="#314B45" transform="translate(468,340)"/>
<path d="M0 0 C2.10409639 -0.02701408 4.20829178 -0.04640223 6.3125 -0.0625 C7.48425781 -0.07410156 8.65601563 -0.08570313 9.86328125 -0.09765625 C13 0 13 0 16 1 C16 2.32 16 3.64 16 5 C12.7 5 9.4 5 6 5 C5.67 6.98 5.34 8.96 5 11 C4.01 11.33 3.02 11.66 2 12 C1.93941406 11.38511719 1.87882812 10.77023437 1.81640625 10.13671875 C1.73261719 9.32847656 1.64882813 8.52023437 1.5625 7.6875 C1.48128906 6.88699219 1.40007812 6.08648437 1.31640625 5.26171875 C1.04734307 2.83912821 1.04734307 2.83912821 0 0 Z " fill="#2F4944" transform="translate(489,282)"/>
<path d="M0 0 C2.20477292 2.83470803 3.08977302 4.19204286 2.6875 7.8125 C2.460625 8.534375 2.23375 9.25625 2 10 C0.35 10.33 -1.3 10.66 -3 11 C-3.83905565 9.87926138 -4.67107831 8.75325453 -5.5 7.625 C-5.9640625 6.99851562 -6.428125 6.37203125 -6.90625 5.7265625 C-8 4 -8 4 -8 2 C-3.61016949 -1.20338983 -3.61016949 -1.20338983 0 0 Z " fill="#EBEDED" transform="translate(52,376)"/>
<path d="M0 0 C1.65 0.33 3.3 0.66 5 1 C6.14947895 4.55293493 6.0868937 5.79976669 4.5625 9.3125 C3.7890625 10.6428125 3.7890625 10.6428125 3 12 C-1.75 11.25 -1.75 11.25 -4 9 C-3.69670231 5.15822926 -2.47524576 2.90572328 0 0 Z " fill="#EAEDEC" transform="translate(466,359)"/>
<path d="M0 0 C3.92628368 0.63100988 5.09485507 1.48391449 7.5 4.5625 C6.84 5.8825 6.18 7.2025 5.5 8.5625 C5.108125 8.046875 4.71625 7.53125 4.3125 7 C2.55072446 5.28763271 2.55072446 5.28763271 -0.0625 5.625 C-2.65318223 6.30697332 -2.65318223 6.30697332 -3.5 8.5625 C-3.83 9.2225 -4.16 9.8825 -4.5 10.5625 C-7.125 11.3125 -7.125 11.3125 -9.5 11.5625 C-7.87447746 5.73771089 -6.44364037 1.03558506 0 0 Z " fill="#2B4640" transform="translate(467.5,354.4375)"/>
<path d="M0 0 C0.33 0 0.66 0 1 0 C1 2.31 1 4.62 1 7 C1.66 7 2.32 7 3 7 C3.33 5.35 3.66 3.7 4 2 C4.33 2 4.66 2 5 2 C5.66 4.64 6.32 7.28 7 10 C9.31 10.66 11.62 11.32 14 12 C14 12.66 14 13.32 14 14 C14.66 14.66 15.32 15.32 16 16 C15 17 15 17 12.3125 17.3125 C7.25806702 16.8356667 4.33229751 14.59875701 1.125 10.75 C-0.41720718 6.98016023 -0.20626379 4.05652128 0 0 Z " fill="#405853" transform="translate(9,318)"/>
<path d="M0 0 C0 0.99 0 1.98 0 3 C-2.01242939 4.01680643 -4.0354132 5.01273789 -6.0625 6 C-7.75052734 6.8353125 -7.75052734 6.8353125 -9.47265625 7.6875 C-13.23526333 9.08753984 -16.02067309 9.2433219 -20 9 C-19.4225 8.5875 -18.845 8.175 -18.25 7.75 C-15.96321577 6.08560068 -15.96321577 6.08560068 -14.25 4 C-10.12885411 0.33675921 -5.39002326 -1.76860138 0 0 Z " fill="#3B544E" transform="translate(47,357)"/>
<path d="M0 0 C3.3 0 6.6 0 10 0 C10.625 2.375 10.625 2.375 11 5 C9 7 9 7 6.8359375 7.1953125 C5.61777344 7.16050781 5.61777344 7.16050781 4.375 7.125 C3.55773437 7.10695313 2.74046875 7.08890625 1.8984375 7.0703125 C1.27195312 7.04710937 0.64546875 7.02390625 0 7 C0 4.69 0 2.38 0 0 Z " fill="#F6F8F7" transform="translate(273,495)"/>
<path d="M0 0 C2.1875 -0.3125 2.1875 -0.3125 5 0 C5.78375 0.825 6.5675 1.65 7.375 2.5 C9.85952519 5.39033171 9.85952519 5.39033171 13.8125 5.3125 C14.864375 5.209375 15.91625 5.10625 17 5 C17 5.66 17 6.32 17 7 C11.39 7 5.78 7 0 7 C0 4.69 0 2.38 0 0 Z " fill="#EFF1F0" transform="translate(274,507)"/>
<path d="M0 0 C0.556875 0.268125 1.11375 0.53625 1.6875 0.8125 C1.6875 1.8025 1.6875 2.7925 1.6875 3.8125 C0.02083333 5.47916667 -1.64583333 7.14583333 -3.3125 8.8125 C-4.631518 11.47783035 -4.631518 11.47783035 -5.3125 13.8125 C-5.9725 13.8125 -6.6325 13.8125 -7.3125 13.8125 C-7.79724869 8.86806335 -8.04935155 5.83590493 -5.0625 1.6875 C-2.3125 -0.1875 -2.3125 -0.1875 0 0 Z " fill="#29443E" transform="translate(17.3125,311.1875)"/>
<path d="M0 0 C0.33 0.66 0.66 1.32 1 2 C-0.98 2 -2.96 2 -5 2 C-5 2.66 -5 3.32 -5 4 C-3.35 4 -1.7 4 0 4 C0 4.33 0 4.66 0 5 C-1.093125 5.103125 -2.18625 5.20625 -3.3125 5.3125 C-7.11154207 6.02079598 -7.58376415 6.35364645 -10 9 C-11.32 9 -12.64 9 -14 9 C-13.02552263 5.49188148 -12.07842969 4.06595224 -9.25 1.6875 C-5.78812732 -0.11001082 -3.83428028 -0.36516955 0 0 Z " fill="#3D5550" transform="translate(215,487)"/>
<path d="M0 0 C3 1 3 1 4 3 C4.30343947 6.48955396 4.39470082 8.37505704 2.5 11.375 C2.005 11.91125 1.51 12.4475 1 13 C0.01 12.67 -0.98 12.34 -2 12 C-1.814375 10.9275 -1.62875 9.855 -1.4375 8.75 C-1.0695432 5.59608454 -0.95534657 3.90181508 -2 1 C-1.34 0.67 -0.68 0.34 0 0 Z " fill="#2D4842" transform="translate(331,491)"/>
<path d="M0 0 C1.125 1.6875 1.125 1.6875 0.8125 4.375 C0.585625 5.138125 0.35875 5.90125 0.125 6.6875 C-2.875 5.6875 -2.875 5.6875 -5.25 3.1875 C-7.9721156 0.59500895 -9.21429183 0.00127499 -12.875 -0.3125 C-12.875 -0.9725 -12.875 -1.6325 -12.875 -2.3125 C-7.50466139 -3.56141596 -4.51037556 -3.15726289 0 0 Z " fill="#2B4640" transform="translate(222.875,491.3125)"/>
<path d="M0 0 C1.32 0 2.64 0 4 0 C3.7589852 6.14587738 3.7589852 6.14587738 1.59765625 8.578125 C0.11953029 9.78844931 -1.43647953 10.90220903 -3 12 C-3.66 11.34 -4.32 10.68 -5 10 C-3.35 6.7 -1.7 3.4 0 0 Z " fill="#344D48" transform="translate(426,439)"/>
<path d="M0 0 C0.66 0.33 1.32 0.66 2 1 C0.63016497 4.16115776 0.0109362 4.9927092 -3 7 C-5.04296875 7.1953125 -5.04296875 7.1953125 -7.1875 7.125 C-9.0746875 7.063125 -9.0746875 7.063125 -11 7 C-11 6.01 -11 5.02 -11 4 C-10.28972656 3.79503906 -9.57945312 3.59007812 -8.84765625 3.37890625 C-7.92855469 3.10949219 -7.00945312 2.84007812 -6.0625 2.5625 C-4.68771484 2.16224609 -4.68771484 2.16224609 -3.28515625 1.75390625 C-1.0597507 1.20973949 -1.0597507 1.20973949 0 0 Z " fill="#304A45" transform="translate(221,505)"/>
<path d="M0 0 C0.33 0 0.66 0 1 0 C1.04898438 0.97582031 1.09796875 1.95164062 1.1484375 2.95703125 C1.22320312 4.22933594 1.29796875 5.50164062 1.375 6.8125 C1.47941406 8.70935547 1.47941406 8.70935547 1.5859375 10.64453125 C1.76102939 14.12755234 1.76102939 14.12755234 4 17 C3.3125 18.9375 3.3125 18.9375 2 21 C-0.625 21.75 -0.625 21.75 -3 22 C-2.68289062 21.18273437 -2.36578125 20.36546875 -2.0390625 19.5234375 C-0.84890917 15.48765441 -0.55640657 11.80490968 -0.375 7.625 C-0.33632812 6.88894531 -0.29765625 6.15289062 -0.2578125 5.39453125 C-0.16442002 3.59672594 -0.0811629 1.79839892 0 0 Z " fill="#415954" transform="translate(252,492)"/>
<path d="M0 0 C0.625 1.875 0.625 1.875 1 4 C0.34 4.66 -0.32 5.32 -1 6 C-0.67 6.99 -0.34 7.98 0 9 C-3.375 8.75 -3.375 8.75 -7 8 C-8.5 6.0625 -8.5 6.0625 -9 4 C-8.67 3.34 -8.34 2.68 -8 2 C-5.69 2.33 -3.38 2.66 -1 3 C-0.67 2.01 -0.34 1.02 0 0 Z " fill="#3D5550" transform="translate(74,425)"/>
<path d="M0 0 C2.05078125 0.03255208 4.1015625 0.06510417 6.15234375 0.09765625 C6.15234375 0.75765625 6.15234375 1.41765625 6.15234375 2.09765625 C5.49234375 2.09765625 4.83234375 2.09765625 4.15234375 2.09765625 C4.15234375 3.08765625 4.15234375 4.07765625 4.15234375 5.09765625 C-0.13765625 5.09765625 -4.42765625 5.09765625 -8.84765625 5.09765625 C-8.84765625 4.76765625 -8.84765625 4.43765625 -8.84765625 4.09765625 C-6.53765625 4.09765625 -4.22765625 4.09765625 -1.84765625 4.09765625 C-2.17765625 3.10765625 -2.50765625 2.11765625 -2.84765625 1.09765625 C-1.84765625 0.09765625 -1.84765625 0.09765625 0 0 Z " fill="#445C57" transform="translate(324.84765625,489.90234375)"/>
<path d="M0 0 C0.79921875 0.01804687 1.5984375 0.03609375 2.421875 0.0546875 C3.02515625 0.07789063 3.6284375 0.10109375 4.25 0.125 C4.25 1.445 4.25 2.765 4.25 4.125 C2.64620659 4.17916188 1.04188594 4.21786638 -0.5625 4.25 C-1.45582031 4.27320313 -2.34914063 4.29640625 -3.26953125 4.3203125 C-5.75 4.125 -5.75 4.125 -8.75 2.125 C-5.68753253 0.34090198 -3.52920727 -0.10380021 0 0 Z " fill="#28433D" transform="translate(498.75,298.875)"/>
<path d="M0 0 C0.33 0.99 0.66 1.98 1 3 C-0.6875 5.6875 -0.6875 5.6875 -3 8 C-4.32 8 -5.64 8 -7 8 C-7 6.68 -7 5.36 -7 4 C-4.69 2.68 -2.38 1.36 0 0 Z " fill="#2C4640" transform="translate(497,326)"/>
<path d="M0 0 C-0.4794463 4.21912747 -1.16625119 6.79663178 -4 10 C-5 9 -5 9 -5.09765625 7.15234375 C-5.06510417 5.1015625 -5.03255208 3.05078125 -5 1 C-2 0 -2 0 0 0 Z " fill="#334D47" transform="translate(205,495)"/>
<path d="M0 0 C1.32 0.66 2.64 1.32 4 2 C3.3125 4.4375 3.3125 4.4375 2 7 C-0.625 7.8125 -0.625 7.8125 -3 8 C-2.45276317 4.62537285 -1.9451 2.91765 0 0 Z " fill="#364F49" transform="translate(467,389)"/>
<path d="M0 0 C-1.1875 2.5 -1.1875 2.5 -3 5 C-5.6875 5.3125 -5.6875 5.3125 -8 5 C-8.33 3.68 -8.66 2.36 -9 1 C-2.25 -1.125 -2.25 -1.125 0 0 Z " fill="#435A54" transform="translate(487,362)"/>
<path d="M0 0 C-0.1875 1.8125 -0.1875 1.8125 -1 4 C-3.25 5.8125 -3.25 5.8125 -6 7 C-8.8125 6.6875 -8.8125 6.6875 -11 6 C-10.67 5.01 -10.34 4.02 -10 3 C-9.360625 3.185625 -8.72125 3.37125 -8.0625 3.5625 C-7.381875 3.706875 -6.70125 3.85125 -6 4 C-5.16640629 3.16640629 -4.36066808 2.305074 -3.5625 1.4375 C-2 0 -2 0 0 0 Z " fill="#2C4640" transform="translate(33,327)"/>
<path d="M0 0 C0 5.28 0 10.56 0 16 C-0.33 16 -0.66 16 -1 16 C-1.33 13.36 -1.66 10.72 -2 8 C-2.33 8 -2.66 8 -3 8 C-3 5.69 -3 3.38 -3 1 C-1 0 -1 0 0 0 Z " fill="#3F5852" transform="translate(257,492)"/>
<path d="M0 0 C0.99 0.33 1.98 0.66 3 1 C3.79953138 4.28696233 4.09658936 5.71023192 3 9 C2.34 9 1.68 9 1 9 C-1 6 -1 6 -0.625 2.8125 C-0.41875 1.884375 -0.2125 0.95625 0 0 Z " fill="#4B615C" transform="translate(40,390)"/>
<path d="M0 0 C2.15377564 2.62198774 3.40072174 4.64404172 4 8 C3.38125 8.103125 2.7625 8.20625 2.125 8.3125 C-0.36526484 8.87525373 -0.36526484 8.87525373 -2 12 C-4 11 -4 11 -5 9 C-4.0409375 8.443125 -4.0409375 8.443125 -3.0625 7.875 C-0.36141928 5.41947207 -0.31592995 3.55421195 0 0 Z " fill="#3F5752" transform="translate(30,320)"/>
<path d="M0 0 C-0.75 4.75 -0.75 4.75 -3 7 C-3.99 7 -4.98 7 -6 7 C-5.6875 4.625 -5.6875 4.625 -5 2 C-2 0 -2 0 0 0 Z " fill="#314943" transform="translate(481,312)"/>
<path d="M0 0 C1.32 0 2.64 0 4 0 C4.1875 2.875 4.1875 2.875 4 6 C3.01 6.66 2.02 7.32 1 8 C0.67 5.36 0.34 2.72 0 0 Z " fill="#29443E" transform="translate(297,487)"/>
<path d="M0 0 C0 0.99 0 1.98 0 3 C-1.8125 3.625 -1.8125 3.625 -4 4 C-4.99 3.34 -5.98 2.68 -7 2 C-7 1.34 -7 0.68 -7 0 C-3.86650268 -1.04449911 -3.01031744 -0.93423645 0 0 Z " fill="#304A44" transform="translate(47,357)"/>
<path d="M0 0 C2.71843438 3.62457917 3.41789544 4.80884715 4 9 C2.02 9.33 0.04 9.66 -2 10 C-1.34 6.7 -0.68 3.4 0 0 Z " fill="#425954" transform="translate(220,497)"/>
<path d="M0 0 C6.625 -0.25 6.625 -0.25 10 2 C9.67 2.99 9.34 3.98 9 5 C8.01 5 7.02 5 6 5 C6 4.34 6 3.68 6 3 C4.02 2.34 2.04 1.68 0 1 C0 0.67 0 0.34 0 0 Z " fill="#4A5E5A" transform="translate(320,480)"/>
<path d="M0 0 C2.2477975 2.05233685 3.0022242 3.00667261 4 6 C2.35 6.33 0.7 6.66 -1 7 C-0.67 4.69 -0.34 2.38 0 0 Z " fill="#2E4841" transform="translate(364,483)"/>
<path d="M0 0 C1.98 0.495 1.98 0.495 4 1 C3.67 2.32 3.34 3.64 3 5 C1.68 4.67 0.36 4.34 -1 4 C-0.67 2.68 -0.34 1.36 0 0 Z " fill="#405752" transform="translate(119,472)"/>
<path d="M0 0 C0 1.32 0 2.64 0 4 C-2.97 3.505 -2.97 3.505 -6 3 C-6 2.34 -6 1.68 -6 1 C-4 0 -4 0 0 0 Z " fill="#3A534D" transform="translate(189,503)"/>
<path d="M0 0 C0.66 0.33 1.32 0.66 2 1 C-0.31 3.31 -2.62 5.62 -5 8 C-5.33 7.34 -5.66 6.68 -6 6 C-2.25 1.125 -2.25 1.125 0 0 Z " fill="#296E62" transform="translate(230,138)"/>
<path d="M0 0 C0.33 1.32 0.66 2.64 1 4 C-0.98 4 -2.96 4 -5 4 C-5 3.01 -5 2.02 -5 1 C-3.35 0.67 -1.7 0.34 0 0 Z " fill="#223E37" transform="translate(215,508)"/>
<path d="M0 0 C0.99 0.33 1.98 0.66 3 1 C2.67 2.32 2.34 3.64 2 5 C0.35 4.67 -1.3 4.34 -3 4 C-2.01 2.68 -1.02 1.36 0 0 Z " fill="#334D48" transform="translate(162,484)"/>
<path d="M0 0 C2.475 0.495 2.475 0.495 5 1 C4.67 1.99 4.34 2.98 4 4 C2.68 4 1.36 4 0 4 C0 2.68 0 1.36 0 0 Z " fill="#344D47" transform="translate(390,470)"/>
<path d="M0 0 C1.98 0 3.96 0 6 0 C6 1.32 6 2.64 6 4 C4.35 3.67 2.7 3.34 1 3 C0.67 2.01 0.34 1.02 0 0 Z " fill="#24403A" transform="translate(499,283)"/>
<path d="M0 0 C1.4606285 2.64738916 2 3.89448334 2 7 C0.68 7 -0.64 7 -2 7 C-1.42415568 4.61435923 -0.77772405 2.33317216 0 0 Z " fill="#25433C" transform="translate(272,507)"/>
<path d="M0 0 C1.32 0.66 2.64 1.32 4 2 C3.67 2.99 3.34 3.98 3 5 C1.35 5 -0.3 5 -2 5 C-1.34 3.35 -0.68 1.7 0 0 Z " fill="#3B534E" transform="translate(456,388)"/>
<path d="M0 0 C0.33 1.32 0.66 2.64 1 4 C-0.32 4.33 -1.64 4.66 -3 5 C-3 4.34 -3 3.68 -3 3 C-3.66 2.34 -4.32 1.68 -5 1 C-2 0 -2 0 0 0 Z " fill="#39524B" transform="translate(40,340)"/>
<path d="M0 0 C-0.33 2.31 -0.66 4.62 -1 7 C-1.66 7 -2.32 7 -3 7 C-3 5.02 -3 3.04 -3 1 C-1 0 -1 0 0 0 Z " fill="#1F3D38" transform="translate(477,319)"/>
<path d="M0 0 C1.32 0 2.64 0 4 0 C4.33 1.32 4.66 2.64 5 4 C3.35 3.67 1.7 3.34 0 3 C0 2.01 0 1.02 0 0 Z " fill="#25413B" transform="translate(481,297)"/>
</svg>
